<svg width="196" height="34" xmlns="http://www.w3.org/2000/svg">

 <g>
  <title>background</title>
  <rect fill="none" id="canvas_background" height="602" width="802" y="-1" x="-1"/>
 </g>
 <g>
  <title>Layer 1</title>
  <path id="svg_1" fill="#ffffff" d="m13.932,7.956c3.264,0 5.664,0.65999 7.2,1.98c1.56,1.32 2.34,3.048 2.34,5.184c0,0.72 -0.096,1.524 -0.288,2.412c-0.456,1.968 -1.308,3.696 -2.556,5.184c-1.248,1.464 -2.784,2.604 -4.608,3.42c-1.8,0.792 -3.756,1.188 -5.868,1.188c-3.33601,0 -5.80801,-0.66 -7.41601,-1.98c-1.584,-1.344 -2.37601,-3.12 -2.37601,-5.328c0,-0.744 0.09601,-1.572 0.28801,-2.484c0.456,-1.872 1.32,-3.528 2.592,-4.968c1.296,-1.464 2.868,-2.592 4.716,-3.384c1.872,-0.816 3.86401,-1.224 5.97601,-1.224zm-0.108,3.204c-0.504,0 -1.044,0.456 -1.62,1.368c-0.552,0.888 -1.212,2.58 -1.98,5.076c-0.76801,2.496 -1.15201,4.248 -1.15201,5.256c0,0.528 0.084,0.888 0.252,1.08c0.168,0.168 0.396,0.252 0.68401,0.252c0.504,0.048 1.02,-0.384 1.548,-1.296c0.552,-0.912 1.236,-2.688 2.052,-5.328c0.744,-2.328 1.116,-4.02 1.116,-5.076c0,-0.504 -0.084,-0.852 -0.252,-1.044c-0.144,-0.192 -0.36,-0.288 -0.648,-0.288z"/>
  <path id="svg_2" fill="#ffffff" d="m44.9899,22.032c-0.048,0.096 -0.072,0.24 -0.072,0.432c0,0.168 0.036,0.3 0.108,0.396c0.096,0.096 0.216,0.144 0.36,0.144c0.288,0 0.528,-0.12 0.72,-0.36c0.216,-0.264 0.36,-0.396 0.432,-0.396c0.12,0 0.216,0.084 0.288,0.252c0.072,0.144 0.108,0.324 0.108,0.54c0.024,0.696 -0.204,1.38 -0.684,2.052c-0.48,0.648 -1.188,1.188 -2.124,1.62c-0.912,0.408 -2.016,0.612 -3.312,0.612c-1.584,0 -2.844,-0.36 -3.78,-1.08c-0.936,-0.744 -1.416,-1.728 -1.44,-2.952c0,-0.888 0.216,-1.884 0.648,-2.988l1.98,-5.184c0.12,-0.312 0.18,-0.564 0.18,-0.756c0,-0.312 -0.108,-0.552 -0.324,-0.72c-0.192,-0.192 -0.432,-0.288 -0.72,-0.288c-0.456,0 -0.924,0.216 -1.404,0.648c-0.456,0.408 -0.828,1.08 -1.116,2.016l0,-0.072l-2.268,7.308c-0.072,0.288 -0.108,0.54 -0.108,0.756c0,0.312 0.06,0.564 0.18,0.756c0.12,0.168 0.288,0.336 0.504,0.504c0.168,0.168 0.288,0.312 0.36,0.432c0.072,0.096 0.084,0.228 0.036,0.396c-0.12,0.312 -0.36,0.54 -0.72,0.684c-0.36,0.144 -0.912,0.216 -1.656,0.216l-8.208,0c-0.624,0 -1.08,-0.096 -1.368,-0.288c-0.288,-0.216 -0.384,-0.492 -0.288,-0.828c0.096,-0.288 0.348,-0.54 0.756,-0.756c0.36,-0.192 0.66,-0.42 0.9,-0.684c0.24,-0.264 0.444,-0.684 0.612,-1.26l5.472,-17.964c0.072,-0.216 0.108,-0.396 0.108,-0.54c0,-0.264 -0.072,-0.48 -0.216,-0.648c-0.12,-0.168 -0.288,-0.336 -0.504,-0.504c-0.24,-0.192 -0.42,-0.36 -0.54,-0.504c-0.096,-0.144 -0.108,-0.336 -0.036,-0.576c0.144,-0.552 0.9,-1.032 2.268,-1.44001c1.368,-0.40799 2.796,-0.61199 4.284,-0.61199c1.392,0 2.412,0.264 3.06,0.792c0.672,0.528 1.008,1.248 1.008,2.16c0,0.528 -0.084,1.044 -0.252,1.548l-1.944,6.336c0.936,-1.224 1.92,-2.076 2.952,-2.556c1.056,-0.48 2.196,-0.72 3.42,-0.72c1.464,0 2.64,0.444 3.528,1.332c0.912,0.888 1.368,2.04 1.368,3.456c0,0.744 -0.12,1.476 -0.36,2.196l-2.196,7.092z"/>
  <path id="svg_3" fill="#ffffff" d="m82.7165,22.032c-0.048,0.096 -0.072,0.24 -0.072,0.432c0,0.168 0.036,0.3 0.108,0.396c0.096,0.096 0.216,0.144 0.36,0.144c0.288,0 0.528,-0.12 0.72,-0.36c0.216,-0.264 0.36,-0.396 0.432,-0.396c0.12,0 0.216,0.084 0.288,0.252c0.072,0.144 0.108,0.324 0.108,0.54c0.024,0.696 -0.204,1.38 -0.684,2.052c-0.48,0.648 -1.188,1.188 -2.124,1.62c-0.912,0.408 -2.016,0.612 -3.312,0.612c-1.584,0 -2.844,-0.36 -3.78,-1.08c-0.936,-0.744 -1.416,-1.728 -1.44,-2.952c0,-0.888 0.216,-1.884 0.648,-2.988l1.98,-5.184c0.12,-0.312 0.18,-0.564 0.18,-0.756c0,-0.312 -0.108,-0.552 -0.324,-0.72c-0.192,-0.192 -0.432,-0.288 -0.72,-0.288c-0.408,0 -0.828,0.18 -1.26,0.54c-0.432,0.36 -0.816,0.924 -1.152,1.692l-1.98,6.444c-0.048,0.096 -0.072,0.24 -0.072,0.432c0,0.168 0.036,0.3 0.108,0.396c0.096,0.096 0.216,0.144 0.36,0.144c0.288,0 0.528,-0.12 0.72,-0.36c0.216,-0.264 0.36,-0.396 0.432,-0.396c0.12,0 0.216,0.084 0.288,0.252c0.072,0.144 0.108,0.324 0.108,0.54c0.024,0.696 -0.204,1.38 -0.684,2.052c-0.48,0.648 -1.188,1.188 -2.124,1.62c-0.912,0.408 -2.016,0.612 -3.312,0.612c-1.584,0 -2.844,-0.36 -3.78,-1.08c-0.936,-0.744 -1.416,-1.728 -1.44,-2.952c0,-0.888 0.216,-1.884 0.648,-2.988l1.98,-5.184c0.12,-0.312 0.18,-0.564 0.18,-0.756c0,-0.312 -0.108,-0.552 -0.324,-0.72c-0.192,-0.192 -0.432,-0.288 -0.72,-0.288c-0.408,0 -0.828,0.18 -1.26,0.54c-0.432,0.336 -0.792,0.888 -1.08,1.656l-2.376,7.704c-0.096,0.264 -0.144,0.516 -0.144,0.756c0,0.288 0.06,0.528 0.18,0.72c0.12,0.168 0.288,0.348 0.504,0.54c0.168,0.144 0.288,0.276 0.36,0.396c0.072,0.12 0.084,0.264 0.036,0.432c-0.096,0.312 -0.324,0.54 -0.684,0.684c-0.36,0.144 -0.924,0.216 -1.692,0.216l-8.208,0c-0.624,0 -1.068,-0.096 -1.332,-0.288c-0.288,-0.216 -0.396,-0.492 -0.324,-0.828c0.096,-0.288 0.348,-0.54 0.756,-0.756c0.36,-0.192 0.66,-0.42 0.9,-0.684c0.24,-0.264 0.444,-0.684 0.612,-1.26l3.204,-10.404c0.048,-0.12 0.072,-0.288 0.072,-0.504c0,-0.264 -0.06,-0.468 -0.18,-0.612c-0.096,-0.144 -0.264,-0.324 -0.504,-0.54c-0.24,-0.192 -0.408,-0.36 -0.504,-0.504c-0.096,-0.144 -0.108,-0.336 -0.036,-0.576c0.144,-0.552 0.9,-1.032 2.268,-1.44c1.368,-0.432 2.796,-0.648 4.284,-0.648c1.176,0 2.1,0.324 2.772,0.972c0.696,0.648 1.032,1.536 1.008,2.664c0.984,-1.368 2.016,-2.316 3.096,-2.844c1.104,-0.528 2.292,-0.792 3.564,-0.792c1.392,0 2.52,0.408 3.384,1.224c0.888,0.792 1.38,1.836 1.476,3.132c1.032,-1.632 2.136,-2.76 3.312,-3.384c1.176,-0.648 2.46,-0.972 3.852,-0.972c1.464,0 2.64,0.444 3.528,1.332c0.912,0.888 1.368,2.04 1.368,3.456c0,0.744 -0.12,1.476 -0.36,2.196l-2.196,7.092z"/>
  <path id="svg_4" fill="#ffffff" d="m104.932,7.956c1.056,0 1.896,0.432 2.52,1.296c0.648,0.84 0.972,1.992 0.972,3.456c0,1.272 -0.228,2.64 -0.684,4.104c-0.888,2.952 -2.316,5.736 -4.284,8.352c-1.944,2.616 -4.1885,4.716 -6.7325,6.3c-2.52,1.584 -5.0399,2.376 -7.5599,2.376c-1.248,0 -2.3281,-0.216 -3.2401,-0.648c-0.888,-0.432 -1.56,-1.008 -2.016,-1.728c-0.48,-0.72 -0.72,-1.488 -0.72,-2.304c0,-0.36 0.06,-0.756 0.18,-1.188c0.216,-0.672 0.576,-1.188 1.08,-1.548c0.504,-0.36 1.1041,-0.54 1.8001,-0.54c1.104,0 2.0039,0.372 2.6999,1.116c0.72,0.768 1.1761,1.812 1.3681,3.132c1.536,-0.072 2.9519,-0.732 4.2479,-1.98c-1.224,-0.216 -2.136,-0.624 -2.736,-1.224c-0.576,-0.624 -0.972,-1.584 -1.188,-2.88l-1.44,-8.82c-0.072,-0.456 -0.18,-0.768 -0.324,-0.936c-0.12,-0.192 -0.2879,-0.288 -0.5039,-0.288c-0.168,0 -0.3721,0.084 -0.6121,0.252c-0.216,0.168 -0.372,0.252 -0.468,0.252c-0.192,0 -0.288,-0.204 -0.288,-0.612c0,-0.336 0.06,-0.696 0.18,-1.08c0.432,-1.368 1.2361,-2.52 2.4121,-3.456c1.176,-0.96 2.5439,-1.44 4.1039,-1.44c1.536,0 2.664,0.456 3.384,1.368c0.744,0.912 1.2241,2.316 1.4401,4.212l1.0799,7.92c0.072,0.6 0.288,0.9 0.6485,0.9c0.432,0 0.936,-0.384 1.512,-1.152c0.576,-0.792 1.14,-1.908 1.692,-3.348c-0.72,-0.648 -1.272,-1.392 -1.656,-2.232c-0.384,-0.84 -0.576,-1.74 -0.576,-2.7c0,-0.744 0.096,-1.416 0.288,-2.016c0.288,-0.96 0.732,-1.68 1.332,-2.16c0.624,-0.504 1.32,-0.756 2.088,-0.756z"/>
  <path id="svg_5" fill="#ffffff" d="m122.864,0.396c2.568,0 4.488,0.396 5.76,1.188c1.296,0.768 1.944,1.716 1.944,2.844c0,0.912 -0.384,1.62 -1.152,2.124c-0.744,0.48 -1.728,0.72 -2.952,0.72c-1.128,0 -2.004,-0.276 -2.628,-0.828c-0.624,-0.552 -0.936,-1.236 -0.936,-2.052c0,-0.504 0.156,-1.032 0.468,-1.584c-0.72,0 -1.32,0.18 -1.8,0.54c-0.48,0.336 -0.852,0.924 -1.116,1.764c-0.144,0.528 -0.216,1.02 -0.216,1.476c0,0.576 0.096,1.032 0.288,1.368c0.216,0.312 0.516,0.468 0.9,0.468l2.124,0c1.248,0 1.872,0.384 1.872,1.152c0,0.096 -0.024,0.24 -0.072,0.432c-0.144,0.528 -0.444,0.924 -0.9,1.188c-0.432,0.264 -1.092,0.396 -1.98,0.396l-1.08,0l-3.564,11.664c-0.072,0.288 -0.108,0.54 -0.108,0.756c0,0.312 0.06,0.564 0.18,0.756c0.12,0.168 0.288,0.336 0.504,0.504c0.168,0.168 0.288,0.312 0.36,0.432c0.072,0.096 0.084,0.228 0.036,0.396c-0.12,0.312 -0.36,0.54 -0.72,0.684c-0.36,0.144 -0.912,0.216 -1.656,0.216l-8.208,0c-0.624,0 -1.08,-0.096 -1.368,-0.288c-0.288,-0.216 -0.384,-0.492 -0.288,-0.828c0.096,-0.288 0.348,-0.54 0.756,-0.756c0.36,-0.192 0.66,-0.42 0.9,-0.684c0.24,-0.264 0.444,-0.684 0.612,-1.26l2.808,-9.216c0.12,-0.36 0.18,-0.732 0.18,-1.116c0,-0.48 -0.108,-0.852 -0.324,-1.116c-0.192,-0.288 -0.492,-0.6 -0.9,-0.936c-0.264,-0.216 -0.468,-0.396 -0.612,-0.54c-0.12,-0.168 -0.18,-0.36 -0.18,-0.576c-0.024,-0.456 0.132,-0.78 0.468,-0.972c0.36,-0.192 1.032,-0.288 2.016,-0.288l0.9,0c-0.168,-0.6 -0.252,-1.2 -0.252,-1.8c0,-0.6 0.108,-1.224 0.324,-1.872c0.456,-1.224 1.428,-2.256 2.916,-3.09601c1.512,-0.83999 3.744,-1.25999 6.696,-1.25999z"/>
  <path id="svg_6" fill="#ffffff" d="m137.084,7.956c3.264,0 5.664,0.65999 7.2,1.98c1.56,1.32 2.34,3.048 2.34,5.184c0,0.72 -0.096,1.524 -0.288,2.412c-0.456,1.968 -1.308,3.696 -2.556,5.184c-1.248,1.464 -2.784,2.604 -4.608,3.42c-1.8,0.792 -3.756,1.188 -5.868,1.188c-3.336,0 -5.808,-0.66 -7.416,-1.98c-1.584,-1.344 -2.376,-3.12 -2.376,-5.328c0,-0.744 0.096,-1.572 0.288,-2.484c0.456,-1.872 1.32,-3.528 2.592,-4.968c1.296,-1.464 2.868,-2.592 4.716,-3.384c1.872,-0.816 3.864,-1.224 5.976,-1.224zm-0.108,3.204c-0.504,0 -1.044,0.456 -1.62,1.368c-0.552,0.888 -1.212,2.58 -1.98,5.076c-0.768,2.496 -1.152,4.248 -1.152,5.256c0,0.528 0.084,0.888 0.252,1.08c0.168,0.168 0.396,0.252 0.684,0.252c0.504,0.048 1.02,-0.384 1.548,-1.296c0.552,-0.912 1.236,-2.688 2.052,-5.328c0.744,-2.328 1.116,-4.02 1.116,-5.076c0,-0.504 -0.084,-0.852 -0.252,-1.044c-0.144,-0.192 -0.36,-0.288 -0.648,-0.288z"/>
  <path id="svg_7" fill="#ffffff" d="m160.709,7.956c3.264,0 5.664,0.65999 7.2,1.98c1.56,1.32 2.34,3.048 2.34,5.184c0,0.72 -0.096,1.524 -0.288,2.412c-0.456,1.968 -1.308,3.696 -2.556,5.184c-1.248,1.464 -2.784,2.604 -4.608,3.42c-1.8,0.792 -3.756,1.188 -5.868,1.188c-3.336,0 -5.808,-0.66 -7.416,-1.98c-1.584,-1.344 -2.376,-3.12 -2.376,-5.328c0,-0.744 0.096,-1.572 0.288,-2.484c0.456,-1.872 1.32,-3.528 2.592,-4.968c1.296,-1.464 2.868,-2.592 4.716,-3.384c1.872,-0.816 3.864,-1.224 5.976,-1.224zm-0.108,3.204c-0.504,0 -1.044,0.456 -1.62,1.368c-0.552,0.888 -1.212,2.58 -1.98,5.076c-0.768,2.496 -1.152,4.248 -1.152,5.256c0,0.528 0.084,0.888 0.252,1.08c0.168,0.168 0.396,0.252 0.684,0.252c0.504,0.048 1.02,-0.384 1.548,-1.296c0.552,-0.912 1.236,-2.688 2.052,-5.328c0.744,-2.328 1.116,-4.02 1.116,-5.076c0,-0.504 -0.084,-0.852 -0.252,-1.044c-0.144,-0.192 -0.36,-0.288 -0.648,-0.288z"/>
  <path id="svg_8" fill="#ffffff" d="m190.526,21.816c-0.048,0.192 -0.072,0.324 -0.072,0.396c0,0.168 0.048,0.3 0.144,0.396c0.096,0.096 0.216,0.144 0.36,0.144c0.288,0 0.528,-0.12 0.72,-0.36c0.216,-0.264 0.36,-0.396 0.432,-0.396c0.12,0 0.216,0.084 0.288,0.252c0.072,0.168 0.108,0.36 0.108,0.576c0.024,0.648 -0.228,1.308 -0.756,1.98c-0.504,0.672 -1.188,1.224 -2.052,1.656c-0.864,0.432 -1.8,0.648 -2.808,0.648c-1.2,0 -2.244,-0.228 -3.132,-0.684c-0.888,-0.456 -1.5,-1.056 -1.836,-1.8c-0.648,0.84 -1.392,1.464 -2.232,1.872c-0.84,0.408 -1.728,0.612 -2.664,0.612c-1.104,0 -2.136,-0.276 -3.096,-0.828c-0.936,-0.552 -1.692,-1.332 -2.268,-2.34c-0.552,-1.032 -0.828,-2.196 -0.828,-3.492c0,-2.184 0.408,-4.236 1.224,-6.156c0.84,-1.944 2.004,-3.504 3.492,-4.68c1.488,-1.2 3.18,-1.8 5.076,-1.8c1.032,0 1.908,0.12 2.628,0.36c0.744,0.24 1.416,0.6 2.016,1.08l1.224,-4.032c0.072,-0.216 0.108,-0.396 0.108,-0.54c0,-0.264 -0.072,-0.48 -0.216,-0.648c-0.12,-0.168 -0.288,-0.336 -0.504,-0.504c-0.24,-0.192 -0.42,-0.36 -0.54,-0.504c-0.096,-0.144 -0.108,-0.336 -0.036,-0.576c0.144,-0.552 0.9,-1.032 2.268,-1.44001c1.368,-0.40799 2.796,-0.61199 4.284,-0.61199c1.392,0 2.412,0.264 3.06,0.792c0.672,0.528 1.008,1.248 1.008,2.16c0,0.528 -0.084,1.044 -0.252,1.548l-5.148,16.92zm-6.012,-10.116c-0.384,-0.336 -0.804,-0.504 -1.26,-0.504c-0.696,0 -1.38,0.516 -2.052,1.548c-0.672,1.032 -1.212,2.28 -1.62,3.744c-0.408,1.464 -0.6,2.784 -0.576,3.96c0,1.32 0.432,1.98 1.296,1.98c0.312,0 0.576,-0.12 0.792,-0.36c0.216,-0.264 0.42,-0.684 0.612,-1.26l2.808,-9.108z"/>
 </g>
</svg>